# xmcd
#
# Track frame offsets:
#	150
#	11747
#	25017
#	38305
#	47185
#	58602
#	71862
#	84360
#	100985
#	110367
#	123265
#	136977
#	144575
#	154427
#	162972
#	174350
#	188147
#	197612
#	210460
#	220767
#	227059
#
# Disc length: 3172 seconds
#
# Revision: 0
# Processed by: cddbd v1.5.2PL0 Copyright (c) Steve Scherf et al.
# Submitted via: EasyCDDAExtractor 11.5.3.1
#
DISCID=1d0c6215
DTITLE=Shy Guy Douglas - Stone Doin' Alright
DYEAR=1900
DGENRE=Blues
TTITLE0=Monkey Doin' Woman
TTITLE1=What's This I Hear
TTITLE2=Let's Rock And Roll
TTITLE3=My Little Baby
TTITLE4=Shy (take 2) (instrumental)
TTITLE5=Miss Ilola
TTITLE6=Evening Soul (instrumnetal)
TTITLE7=Don't Leave Me Girl
TTITLE8=Haulin' (instrumnetal)
TTITLE9=Stone Doin' Alright (take 1)
TTITLE10=Midnight Soul (take 4) (instrumental)
TTITLE11=Shy Guy's Back In Town (Hip Shakin' Mama)
TTITLE12=Detroit Arrow
TTITLE13=Work With Her
TTITLE14=Raid On Cedar Street
TTITLE15=I Should Have Known
TTITLE16=Yankee Doodle
TTITLE17=Harvest Moon (Bring Her Back To Me)
TTITLE18=Shy (take 1) (instrumental)
TTITLE19=Stone Doin' Alright (take 2)
TTITLE20=Midnight Soul (take 3) (instrumental)
EXTD=
EXTT0=
EXTT1=
EXTT2=
EXTT3=
EXTT4=
EXTT5=
EXTT6=
EXTT7=
EXTT8=
EXTT9=
EXTT10=
EXTT11=
EXTT12=
EXTT13=
EXTT14=
EXTT15=
EXTT16=
EXTT17=
EXTT18=
EXTT19=
EXTT20=
PLAYORDER=
